<?xml version="1.0" encoding="UTF-8" standalone="no"?>
<!DOCTYPE svg PUBLIC "-//W3C//DTD SVG 1.1//EN"
 "http://www.w3.org/Graphics/SVG/1.1/DTD/svg11.dtd">
<!-- Generated by graphviz version 5.0.0 (20220707.1540)
 -->
<!-- Title: dependencies Pages: 1 -->
<svg width="1375pt" height="247pt"
 viewBox="0.00 0.00 1375.00 246.80" xmlns="http://www.w3.org/2000/svg" xmlns:xlink="http://www.w3.org/1999/xlink">
<g id="graph0" class="graph" transform="scale(1 1) rotate(0) translate(4 242.8)">
<title>dependencies</title>
<polygon fill="white" stroke="transparent" points="-4,4 -4,-242.8 1371,-242.8 1371,4 -4,4"/>
<text text-anchor="middle" x="683.5" y="-8.2" font-family="sans-serif" font-size="14.00">dependencies</text>
<g id="clust1" class="cluster">
<title>cluster_AppModule</title>
<polygon fill="none" stroke="black" stroke-dasharray="1,5" points="8,-32.8 8,-230.8 1359,-230.8 1359,-32.8 8,-32.8"/>
</g>
<g id="clust11" class="cluster">
<title>cluster_AppModule_imports</title>
<polygon fill="none" stroke="black" points="1207,-40.8 1207,-92.8 1351,-92.8 1351,-40.8 1207,-40.8"/>
</g>
<g id="clust13" class="cluster">
<title>cluster_AppModule_bootstrap</title>
<polygon fill="none" stroke="black" points="636,-170.8 636,-222.8 760,-222.8 760,-170.8 636,-170.8"/>
</g>
<g id="clust2" class="cluster">
<title>cluster_AppModule_declarations</title>
<polygon fill="none" stroke="black" points="16,-40.8 16,-92.8 1199,-92.8 1199,-40.8 16,-40.8"/>
</g>
<!-- AppComponent -->
<g id="node1" class="node">
<title>AppComponent</title>
<polygon fill="#ffffb3" stroke="black" points="1190.94,-84.8 1085.06,-84.8 1085.06,-48.8 1190.94,-48.8 1190.94,-84.8"/>
<text text-anchor="middle" x="1138" y="-62.6" font-family="Times,serif" font-size="14.00">AppComponent</text>
</g>
<!-- AppModule -->
<g id="node9" class="node">
<title>AppModule</title>
<polygon fill="#8dd3c7" stroke="black" points="739.66,-149.8 736.66,-153.8 715.66,-153.8 712.66,-149.8 656.34,-149.8 656.34,-113.8 739.66,-113.8 739.66,-149.8"/>
<text text-anchor="middle" x="698" y="-127.6" font-family="Times,serif" font-size="14.00">AppModule</text>
</g>
<!-- AppComponent&#45;&gt;AppModule -->
<g id="edge1" class="edge">
<title>AppComponent&#45;&gt;AppModule</title>
<path fill="none" stroke="black" d="M1138,-84.93C1138,-105.37 1138,-135.8 1138,-135.8 1138,-135.8 749.79,-135.8 749.79,-135.8"/>
<polygon fill="black" stroke="black" points="749.79,-132.3 739.79,-135.8 749.79,-139.3 749.79,-132.3"/>
</g>
<!-- BackgroundComponent -->
<g id="node2" class="node">
<title>BackgroundComponent</title>
<polygon fill="#ffffb3" stroke="black" points="1066.76,-84.8 917.24,-84.8 917.24,-48.8 1066.76,-48.8 1066.76,-84.8"/>
<text text-anchor="middle" x="992" y="-62.6" font-family="Times,serif" font-size="14.00">BackgroundComponent</text>
</g>
<!-- BackgroundComponent&#45;&gt;AppModule -->
<g id="edge2" class="edge">
<title>BackgroundComponent&#45;&gt;AppModule</title>
<path fill="none" stroke="black" d="M992,-85.07C992,-103.36 992,-128.8 992,-128.8 992,-128.8 749.81,-128.8 749.81,-128.8"/>
<polygon fill="black" stroke="black" points="749.81,-125.3 739.81,-128.8 749.81,-132.3 749.81,-125.3"/>
</g>
<!-- CardComponent -->
<g id="node3" class="node">
<title>CardComponent</title>
<polygon fill="#ffffb3" stroke="black" points="899.05,-84.8 790.95,-84.8 790.95,-48.8 899.05,-48.8 899.05,-84.8"/>
<text text-anchor="middle" x="845" y="-62.6" font-family="Times,serif" font-size="14.00">CardComponent</text>
</g>
<!-- CardComponent&#45;&gt;AppModule -->
<g id="edge3" class="edge">
<title>CardComponent&#45;&gt;AppModule</title>
<path fill="none" stroke="black" d="M845,-84.81C845,-100.85 845,-121.8 845,-121.8 845,-121.8 749.73,-121.8 749.73,-121.8"/>
<polygon fill="black" stroke="black" points="749.73,-118.3 739.73,-121.8 749.73,-125.3 749.73,-118.3"/>
</g>
<!-- ExplanationComponent -->
<g id="node4" class="node">
<title>ExplanationComponent</title>
<polygon fill="#ffffb3" stroke="black" points="772.48,-84.8 623.52,-84.8 623.52,-48.8 772.48,-48.8 772.48,-84.8"/>
<text text-anchor="middle" x="698" y="-62.6" font-family="Times,serif" font-size="14.00">ExplanationComponent</text>
</g>
<!-- ExplanationComponent&#45;&gt;AppModule -->
<g id="edge4" class="edge">
<title>ExplanationComponent&#45;&gt;AppModule</title>
<path fill="none" stroke="black" d="M698,-84.91C698,-84.91 698,-103.79 698,-103.79"/>
<polygon fill="black" stroke="black" points="694.5,-103.79 698,-113.79 701.5,-103.79 694.5,-103.79"/>
</g>
<!-- MapBoxComponent -->
<g id="node5" class="node">
<title>MapBoxComponent</title>
<polygon fill="#ffffb3" stroke="black" points="605.33,-84.8 474.67,-84.8 474.67,-48.8 605.33,-48.8 605.33,-84.8"/>
<text text-anchor="middle" x="540" y="-62.6" font-family="Times,serif" font-size="14.00">MapBoxComponent</text>
</g>
<!-- MapBoxComponent&#45;&gt;AppModule -->
<g id="edge5" class="edge">
<title>MapBoxComponent&#45;&gt;AppModule</title>
<path fill="none" stroke="black" d="M540,-84.81C540,-100.85 540,-121.8 540,-121.8 540,-121.8 646.07,-121.8 646.07,-121.8"/>
<polygon fill="black" stroke="black" points="646.07,-125.3 656.07,-121.8 646.07,-118.3 646.07,-125.3"/>
</g>
<!-- SearchbarComponent -->
<g id="node6" class="node">
<title>SearchbarComponent</title>
<polygon fill="#ffffb3" stroke="black" points="456.8,-84.8 319.2,-84.8 319.2,-48.8 456.8,-48.8 456.8,-84.8"/>
<text text-anchor="middle" x="388" y="-62.6" font-family="Times,serif" font-size="14.00">SearchbarComponent</text>
</g>
<!-- SearchbarComponent&#45;&gt;AppModule -->
<g id="edge6" class="edge">
<title>SearchbarComponent&#45;&gt;AppModule</title>
<path fill="none" stroke="black" d="M388,-85.07C388,-103.36 388,-128.8 388,-128.8 388,-128.8 646.19,-128.8 646.19,-128.8"/>
<polygon fill="black" stroke="black" points="646.19,-132.3 656.19,-128.8 646.19,-125.3 646.19,-132.3"/>
</g>
<!-- ToolbarComponent -->
<g id="node7" class="node">
<title>ToolbarComponent</title>
<polygon fill="#ffffb3" stroke="black" points="301.65,-84.8 176.35,-84.8 176.35,-48.8 301.65,-48.8 301.65,-84.8"/>
<text text-anchor="middle" x="239" y="-62.6" font-family="Times,serif" font-size="14.00">ToolbarComponent</text>
</g>
<!-- ToolbarComponent&#45;&gt;AppModule -->
<g id="edge7" class="edge">
<title>ToolbarComponent&#45;&gt;AppModule</title>
<path fill="none" stroke="black" d="M239,-84.93C239,-105.37 239,-135.8 239,-135.8 239,-135.8 646.05,-135.8 646.05,-135.8"/>
<polygon fill="black" stroke="black" points="646.05,-139.3 656.05,-135.8 646.05,-132.3 646.05,-139.3"/>
</g>
<!-- UpArrowComponent -->
<g id="node8" class="node">
<title>UpArrowComponent</title>
<polygon fill="#ffffb3" stroke="black" points="158.49,-84.8 23.51,-84.8 23.51,-48.8 158.49,-48.8 158.49,-84.8"/>
<text text-anchor="middle" x="91" y="-62.6" font-family="Times,serif" font-size="14.00">UpArrowComponent</text>
</g>
<!-- UpArrowComponent&#45;&gt;AppModule -->
<g id="edge8" class="edge">
<title>UpArrowComponent&#45;&gt;AppModule</title>
<path fill="none" stroke="black" d="M91,-84.81C91,-107.29 91,-142.8 91,-142.8 91,-142.8 646.28,-142.8 646.28,-142.8"/>
<polygon fill="black" stroke="black" points="646.28,-146.3 656.28,-142.8 646.28,-139.3 646.28,-146.3"/>
</g>
<!-- AppComponent  -->
<g id="node11" class="node">
<title>AppComponent </title>
<polygon fill="#80b1d3" stroke="black" points="752.44,-214.8 643.56,-214.8 643.56,-178.8 752.44,-178.8 752.44,-214.8"/>
<text text-anchor="middle" x="698" y="-192.6" font-family="Times,serif" font-size="14.00">AppComponent </text>
</g>
<!-- AppModule&#45;&gt;AppComponent  -->
<g id="edge10" class="edge">
<title>AppModule&#45;&gt;AppComponent </title>
<path fill="none" stroke="black" stroke-dasharray="1,5" d="M698,-149.91C698,-149.91 698,-168.79 698,-168.79"/>
<polygon fill="black" stroke="black" points="694.5,-168.79 698,-178.79 701.5,-168.79 694.5,-168.79"/>
</g>
<!-- AppRoutingModule -->
<g id="node10" class="node">
<title>AppRoutingModule</title>
<polygon fill="#8dd3c7" stroke="black" points="1343.28,-84.8 1340.28,-88.8 1319.28,-88.8 1316.28,-84.8 1214.72,-84.8 1214.72,-48.8 1343.28,-48.8 1343.28,-84.8"/>
<text text-anchor="middle" x="1279" y="-62.6" font-family="Times,serif" font-size="14.00">AppRoutingModule</text>
</g>
<!-- AppRoutingModule&#45;&gt;AppModule -->
<g id="edge9" class="edge">
<title>AppRoutingModule&#45;&gt;AppModule</title>
<path fill="none" stroke="black" d="M1279,-84.81C1279,-107.29 1279,-142.8 1279,-142.8 1279,-142.8 749.78,-142.8 749.78,-142.8"/>
<polygon fill="black" stroke="black" points="749.78,-139.3 739.78,-142.8 749.78,-146.3 749.78,-139.3"/>
</g>
</g>
</svg>
