<?xml version="1.0" encoding="UTF-8" standalone="no"?>
<!DOCTYPE svg PUBLIC "-//W3C//DTD SVG 1.1//EN"
 "http://www.w3.org/Graphics/SVG/1.1/DTD/svg11.dtd">
<!-- Generated by graphviz version 5.0.0 (20220707.1540)
 -->
<!-- Title: dependencies Pages: 1 -->
<svg width="1375pt" height="247pt"
 viewBox="0.00 0.00 1375.00 246.80" xmlns="http://www.w3.org/2000/svg" xmlns:xlink="http://www.w3.org/1999/xlink">
<g id="graph0" class="graph" transform="scale(1 1) rotate(0) translate(4 242.8)">
<title>dependencies</title>
<polygon fill="white" stroke="transparent" points="-4,4 -4,-242.8 1371,-242.8 1371,4 -4,4"/>
<text text-anchor="middle" x="683.5" y="-8.2" font-family="sans-serif" font-size="14.00">dependencies</text>
<g id="clust1" class="cluster">
<title>cluster_AppModule</title>
<polygon fill="none" stroke="black" stroke-dasharray="1,5" points="8,-32.8 8,-230.8 1359,-230.8 1359,-32.8 8,-32.8"/>
</g>
<g id="clust2" class="cluster">
<title>cluster_AppModule_declarations</title>
<polygon fill="none" stroke="black" points="168,-40.8 168,-92.8 1351,-92.8 1351,-40.8 168,-40.8"/>
</g>
<g id="clust11" class="cluster">
<title>cluster_AppModule_imports</title>
<polygon fill="none" stroke="black" points="16,-40.8 16,-92.8 160,-92.8 160,-40.8 16,-40.8"/>
</g>
<g id="clust13" class="cluster">
<title>cluster_AppModule_bootstrap</title>
<polygon fill="none" stroke="black" points="630,-170.8 630,-222.8 754,-222.8 754,-170.8 630,-170.8"/>
</g>
<!-- AppComponent -->
<g id="node1" class="node">
<title>AppComponent</title>
<polygon fill="#ffffb3" stroke="black" points="1342.94,-84.8 1237.06,-84.8 1237.06,-48.8 1342.94,-48.8 1342.94,-84.8"/>
<text text-anchor="middle" x="1290" y="-62.6" font-family="Times,serif" font-size="14.00">AppComponent</text>
</g>
<!-- AppModule -->
<g id="node9" class="node">
<title>AppModule</title>
<polygon fill="#8dd3c7" stroke="black" points="733.66,-149.8 730.66,-153.8 709.66,-153.8 706.66,-149.8 650.34,-149.8 650.34,-113.8 733.66,-113.8 733.66,-149.8"/>
<text text-anchor="middle" x="692" y="-127.6" font-family="Times,serif" font-size="14.00">AppModule</text>
</g>
<!-- AppComponent&#45;&gt;AppModule -->
<g id="edge1" class="edge">
<title>AppComponent&#45;&gt;AppModule</title>
<path fill="none" stroke="black" d="M1290,-84.81C1290,-107.29 1290,-142.8 1290,-142.8 1290,-142.8 744.05,-142.8 744.05,-142.8"/>
<polygon fill="black" stroke="black" points="744.05,-139.3 734.05,-142.8 744.05,-146.3 744.05,-139.3"/>
</g>
<!-- BackgroundComponent -->
<g id="node2" class="node">
<title>BackgroundComponent</title>
<polygon fill="#ffffb3" stroke="black" points="1218.76,-84.8 1069.24,-84.8 1069.24,-48.8 1218.76,-48.8 1218.76,-84.8"/>
<text text-anchor="middle" x="1144" y="-62.6" font-family="Times,serif" font-size="14.00">BackgroundComponent</text>
</g>
<!-- BackgroundComponent&#45;&gt;AppModule -->
<g id="edge2" class="edge">
<title>BackgroundComponent&#45;&gt;AppModule</title>
<path fill="none" stroke="black" d="M1144,-84.93C1144,-105.37 1144,-135.8 1144,-135.8 1144,-135.8 743.71,-135.8 743.71,-135.8"/>
<polygon fill="black" stroke="black" points="743.71,-132.3 733.71,-135.8 743.71,-139.3 743.71,-132.3"/>
</g>
<!-- CardComponent -->
<g id="node3" class="node">
<title>CardComponent</title>
<polygon fill="#ffffb3" stroke="black" points="1051.05,-84.8 942.95,-84.8 942.95,-48.8 1051.05,-48.8 1051.05,-84.8"/>
<text text-anchor="middle" x="997" y="-62.6" font-family="Times,serif" font-size="14.00">CardComponent</text>
</g>
<!-- CardComponent&#45;&gt;AppModule -->
<g id="edge3" class="edge">
<title>CardComponent&#45;&gt;AppModule</title>
<path fill="none" stroke="black" d="M997,-85.07C997,-103.36 997,-128.8 997,-128.8 997,-128.8 743.77,-128.8 743.77,-128.8"/>
<polygon fill="black" stroke="black" points="743.77,-125.3 733.77,-128.8 743.77,-132.3 743.77,-125.3"/>
</g>
<!-- ExplanationComponent -->
<g id="node4" class="node">
<title>ExplanationComponent</title>
<polygon fill="#ffffb3" stroke="black" points="924.48,-84.8 775.52,-84.8 775.52,-48.8 924.48,-48.8 924.48,-84.8"/>
<text text-anchor="middle" x="850" y="-62.6" font-family="Times,serif" font-size="14.00">ExplanationComponent</text>
</g>
<!-- ExplanationComponent&#45;&gt;AppModule -->
<g id="edge4" class="edge">
<title>ExplanationComponent&#45;&gt;AppModule</title>
<path fill="none" stroke="black" d="M850,-84.81C850,-100.85 850,-121.8 850,-121.8 850,-121.8 743.93,-121.8 743.93,-121.8"/>
<polygon fill="black" stroke="black" points="743.93,-118.3 733.93,-121.8 743.93,-125.3 743.93,-118.3"/>
</g>
<!-- MapBoxComponent -->
<g id="node5" class="node">
<title>MapBoxComponent</title>
<polygon fill="#ffffb3" stroke="black" points="757.33,-84.8 626.67,-84.8 626.67,-48.8 757.33,-48.8 757.33,-84.8"/>
<text text-anchor="middle" x="692" y="-62.6" font-family="Times,serif" font-size="14.00">MapBoxComponent</text>
</g>
<!-- MapBoxComponent&#45;&gt;AppModule -->
<g id="edge5" class="edge">
<title>MapBoxComponent&#45;&gt;AppModule</title>
<path fill="none" stroke="black" d="M692,-84.91C692,-84.91 692,-103.79 692,-103.79"/>
<polygon fill="black" stroke="black" points="688.5,-103.79 692,-113.79 695.5,-103.79 688.5,-103.79"/>
</g>
<!-- SearchbarComponent -->
<g id="node6" class="node">
<title>SearchbarComponent</title>
<polygon fill="#ffffb3" stroke="black" points="608.8,-84.8 471.2,-84.8 471.2,-48.8 608.8,-48.8 608.8,-84.8"/>
<text text-anchor="middle" x="540" y="-62.6" font-family="Times,serif" font-size="14.00">SearchbarComponent</text>
</g>
<!-- SearchbarComponent&#45;&gt;AppModule -->
<g id="edge6" class="edge">
<title>SearchbarComponent&#45;&gt;AppModule</title>
<path fill="none" stroke="black" d="M540,-84.81C540,-100.85 540,-121.8 540,-121.8 540,-121.8 640.06,-121.8 640.06,-121.8"/>
<polygon fill="black" stroke="black" points="640.06,-125.3 650.06,-121.8 640.06,-118.3 640.06,-125.3"/>
</g>
<!-- ToolbarComponent -->
<g id="node7" class="node">
<title>ToolbarComponent</title>
<polygon fill="#ffffb3" stroke="black" points="453.65,-84.8 328.35,-84.8 328.35,-48.8 453.65,-48.8 453.65,-84.8"/>
<text text-anchor="middle" x="391" y="-62.6" font-family="Times,serif" font-size="14.00">ToolbarComponent</text>
</g>
<!-- ToolbarComponent&#45;&gt;AppModule -->
<g id="edge7" class="edge">
<title>ToolbarComponent&#45;&gt;AppModule</title>
<path fill="none" stroke="black" d="M391,-85.07C391,-103.36 391,-128.8 391,-128.8 391,-128.8 640.15,-128.8 640.15,-128.8"/>
<polygon fill="black" stroke="black" points="640.15,-132.3 650.15,-128.8 640.15,-125.3 640.15,-132.3"/>
</g>
<!-- UpArrowComponent -->
<g id="node8" class="node">
<title>UpArrowComponent</title>
<polygon fill="#ffffb3" stroke="black" points="310.49,-84.8 175.51,-84.8 175.51,-48.8 310.49,-48.8 310.49,-84.8"/>
<text text-anchor="middle" x="243" y="-62.6" font-family="Times,serif" font-size="14.00">UpArrowComponent</text>
</g>
<!-- UpArrowComponent&#45;&gt;AppModule -->
<g id="edge8" class="edge">
<title>UpArrowComponent&#45;&gt;AppModule</title>
<path fill="none" stroke="black" d="M243,-84.93C243,-105.37 243,-135.8 243,-135.8 243,-135.8 640.16,-135.8 640.16,-135.8"/>
<polygon fill="black" stroke="black" points="640.16,-139.3 650.16,-135.8 640.16,-132.3 640.16,-139.3"/>
</g>
<!-- AppComponent  -->
<g id="node11" class="node">
<title>AppComponent </title>
<polygon fill="#80b1d3" stroke="black" points="746.44,-214.8 637.56,-214.8 637.56,-178.8 746.44,-178.8 746.44,-214.8"/>
<text text-anchor="middle" x="692" y="-192.6" font-family="Times,serif" font-size="14.00">AppComponent </text>
</g>
<!-- AppModule&#45;&gt;AppComponent  -->
<g id="edge10" class="edge">
<title>AppModule&#45;&gt;AppComponent </title>
<path fill="none" stroke="black" stroke-dasharray="1,5" d="M692,-149.91C692,-149.91 692,-168.79 692,-168.79"/>
<polygon fill="black" stroke="black" points="688.5,-168.79 692,-178.79 695.5,-168.79 688.5,-168.79"/>
</g>
<!-- AppRoutingModule -->
<g id="node10" class="node">
<title>AppRoutingModule</title>
<polygon fill="#8dd3c7" stroke="black" points="152.28,-84.8 149.28,-88.8 128.28,-88.8 125.28,-84.8 23.72,-84.8 23.72,-48.8 152.28,-48.8 152.28,-84.8"/>
<text text-anchor="middle" x="88" y="-62.6" font-family="Times,serif" font-size="14.00">AppRoutingModule</text>
</g>
<!-- AppRoutingModule&#45;&gt;AppModule -->
<g id="edge9" class="edge">
<title>AppRoutingModule&#45;&gt;AppModule</title>
<path fill="none" stroke="black" d="M88,-84.81C88,-107.29 88,-142.8 88,-142.8 88,-142.8 640.01,-142.8 640.01,-142.8"/>
<polygon fill="black" stroke="black" points="640.01,-146.3 650.01,-142.8 640.01,-139.3 640.01,-146.3"/>
</g>
</g>
</svg>
